# xmcd CD database file
#
# Track frame offsets:
#	150
#	16727
#	36896
#	58492
#	75898
#	88731
#	99518
#	116558
#	144008
#	163695
#	184298
#	201803
#	225155
#
# Disc length: 3467 seconds
#
# Revision: 1
# Processed by: cddbd v1.5.2PL0 Copyright (c) Steve Scherf et al.
# Submitted via: CDex 1.51
#
DISCID=9a0d890d
DTITLE=Robert Lighthouse - Deep Down In The mud
DYEAR=2007
DGENRE=Blues
TTITLE0=Last Fairdeal Gone Down
TTITLE1=Stuck In The Mud
TTITLE2=Preachin The Blues
TTITLE3=Deep Down In The Mud
TTITLE4=Long Haired Dony
TTITLE5=Cat Squirrel Blues
TTITLE6=Turkey Leg Woman
TTITLE7=Champagne And Reefer
TTITLE8=Red Hot Mama (Elmore James)
TTITLE9=All Your Love
TTITLE10=Red Hot Mama ( George Clinton)
TTITLE11=Meet Me In The Bottom
TTITLE12=Spanish Castle Magic
EXTD=YEAR: 2007
EXTT0=
EXTT1=
EXTT2=
EXTT3=
EXTT4=
EXTT5=
EXTT6=
EXTT7=
EXTT8=
EXTT9=
EXTT10=
EXTT11=
EXTT12=
PLAYORDER=
